Coordinates
version=1
nRows=25
nColumns=21
inDegrees=yes

Units are S.I. units (second, meters, Newtons, ...)
If the header above contains a line with 'inDegrees', this indicates whether rotational values are in degrees (yes) or radians (no).

endheader
time	bJoint_3	seatpos	slocangle	soarinout	sblpos	plocangle	poarinout	pblpos	hipangle	kneeangle	footangle	lbackangle	uarmleft_out	uarmleft_trn	uarmleft_up	se_inout	se_updown	handleleft_out	handleleft_trn	handleleft_up
      1.74000000	     -0.00000015	     -0.10623597	      4.80449996	     13.70552898	    -13.70552898	      2.93563874	     11.96098513	    -11.96098513	     67.25199786	     54.65330529	     31.90530315	     -9.54709115	     21.12727062	     31.84083757	    119.98201870	     -5.02752932	      4.12544671	    -17.28834959	   -135.00308075	    -54.04757937
      1.74500000	     -0.00000015	     -0.10928409	      5.39211873	     13.70092135	    -13.70092135	      3.46819149	     11.95494719	    -11.95494719	     66.83012927	     55.46579542	     32.29592469	     -9.12616509	     20.63649431	     31.65603736	    119.84186335	     -4.94103211	      3.96105269	    -16.96155960	   -134.93776779	    -54.29954432
      1.75000000	     -0.00000015	     -0.11231574	      5.93079872	     13.70264024	    -13.70264024	      4.06659354	     11.94697368	    -11.94697368	     66.41634848	     56.26314964	     32.67949812	     -8.76380748	     20.11992907	     31.59267032	    119.68123541	     -5.10090449	      3.94444593	    -16.72579281	   -134.99500280	    -54.49282659
      1.75500000	     -0.00000015	     -0.11538155	      6.53296074	     13.70552424	    -13.70552424	      4.60310151	     11.95226416	    -11.95226416	     66.00354766	     57.05905306	     33.06260072	     -8.33514216	     19.61822295	     31.61223767	    119.49279062	     -5.21100559	      4.20564720	    -16.49285422	   -134.99956049	    -54.57652452
      1.76000000	     -0.00000015	     -0.11827542	      7.10772414	     13.70665779	    -13.70665779	      5.20037381	     11.94185977	    -11.94185977	     65.61889453	     57.80108212	     33.41997665	     -7.94780295	     19.30439934	     31.31729459	    119.35879320	     -4.76699189	      4.06699991	    -16.11788465	   -134.73060606	    -54.72692174
      1.76500000	     -0.00000015	     -0.12234126	      7.71253775	     13.70471155	    -13.70471155	      5.80330852	     11.94368288	    -11.94368288	     65.08630589	     58.82912691	     33.91543280	     -7.60773840	     18.89586354	     31.33896764	    119.17285165	     -4.90167701	      4.36354056	    -15.90669025	   -134.75325376	    -54.79808505
      1.77000000	     -0.00000015	     -0.12527645	      8.32003391	     13.69743882	    -13.69743882	      6.39890144	     11.93080560	    -11.93080560	     64.70727760	     59.56121024	     34.26848784	     -7.18113843	     18.35435384	     31.16683216	    119.00028168	     -4.90526573	      4.30608634	    -15.61731791	   -134.72031099	    -54.98029574
      1.77500000	     -0.00000015	     -0.12834023	      8.89980367	     13.71028936	    -13.71028936	      7.06721334	     11.92839672	    -11.92839672	     64.31632302	     60.31672668	     34.63304969	     -6.82345403	     17.82006285	     30.91453901	    118.80765490	     -4.87530994	      4.11036348	    -15.30929999	   -134.67002233	    -55.16388448
      1.78000000	     -0.00000016	     -0.13124986	      9.52073132	     13.68764005	    -13.68764005	      7.66927564	     11.92621484	    -11.92621484	     63.94930226	     61.02636153	     34.97566379	     -6.36892299	     17.13881095	     30.87046629	    118.61783802	     -5.23163321	      4.19193217	    -15.10839697	   -134.82167128	    -55.34701964
      1.78500000	     -0.00000016	     -0.13535051	     10.17716680	     13.71203493	    -13.71203493	      8.33680673	     11.92081389	    -11.92081389	     63.43882434	     62.01397235	     35.45279669	     -6.03399302	     16.71707820	     30.69743077	    118.37801255	     -5.12401540	      4.34181205	    -14.80986668	   -134.70024571	    -55.37008800
      1.79000000	     -0.00000016	     -0.13827787	     10.79943382	     13.68338028	    -13.68338028	      8.93801356	     11.91594254	    -11.91594254	     63.07907026	     62.71040500	     35.78947526	     -5.59686934	     16.02117197	     30.45386333	    118.20826131	     -5.35262828	      4.08442309	    -14.54469267	   -134.80370736	    -55.65871350
      1.79500000	     -0.00000016	     -0.14233654	     11.41960273	     13.70768963	    -13.70768963	      9.60411826	     11.90757151	    -11.90757151	     62.58645262	     63.66461707	     36.25106969	     -5.31142127	     15.58950303	     30.20885878	    117.97853607	     -5.28336257	      4.07271673	    -14.25463709	   -134.71641056	    -55.72824989
      1.80000000	     -0.00000016	     -0.14524988	     12.10255682	     13.70496255	    -13.70496255	     10.28100614	     11.91083670	    -11.91083670	     62.23710529	     64.34171731	     36.57882260	     -4.85167939	     15.11019228	     29.93706406	    117.76246443	     -5.02253954	      4.15690735	    -13.92496550	   -134.51019144	    -55.76374549
      1.80500000	     -0.00000016	     -0.14938528	     12.77421690	     13.70767041	    -13.70767041	     11.01068679	     11.89678762	    -11.89678762	     61.74708805	     65.29203606	     37.03912411	     -4.50997349	     14.54927441	     29.69189484	    117.52993792	     -5.13664505	      4.11924924	    -13.65667013	   -134.52704201	    -55.88999454
      1.81000000	     -0.00000016	     -0.15231770	     13.45271618	     13.70261855	    -13.70261855	     11.68704923	     11.89671257	    -11.89671257	     61.40364761	     65.95849334	     37.36214095	     -4.06051346	     13.83798793	     29.46145296	    117.28505159	     -5.32556798	      4.10428177	    -13.40063763	   -134.56863224	    -56.00518004
      1.81500000	     -0.00000016	     -0.15619067	     14.16805876	     13.71616855	    -13.71616855	     12.36327532	     11.89499476	    -11.89499476	     60.95498597	     66.82964214	     37.78462811	     -3.67441444	     13.24217009	     29.23669448	    117.00646142	     -5.41072110	      4.24471889	    -13.13708918	   -134.54225177	    -56.02002910
      1.82000000	     -0.00000016	     -0.15943050	     14.85149714	     13.70266408	    -13.70266408	     13.10379780	     11.88866528	    -11.88866528	     60.58384362	     67.55071279	     38.13455641	     -3.26781772	     12.77331436	     28.75651158	    116.81417838	     -5.07584964	      3.99661540	    -12.77075677	   -134.32049088	    -56.15716950
      1.82500000	     -0.00000017	     -0.16331633	     15.58556729	     13.72444092	    -13.72444092	     13.84338071	     11.88041790	    -11.88041790	     60.14353346	     68.40668585	     38.55021931	     -2.88413924	     12.16622419	     28.53342627	    116.50671492	     -5.17246854	      4.22573539	    -12.52192522	   -134.28671544	    -56.10730526
      1.83000000	     -0.00000017	     -0.16722339	     16.26896536	     13.70503826	    -13.70503826	     14.58178576	     11.87026288	    -11.87026288	     59.70595272	     69.25791898	     38.96387170	     -2.52167195	     11.54635598	     28.30356815	    116.27409052	     -5.44960504	      4.28074566	    -12.32067494	   -134.38794861	    -56.20169363
      1.83500000	     -0.00000017	     -0.17018913	     17.00596341	     13.71856777	    -13.71856777	     15.33624968	     11.87104960	    -11.87104960	     59.37711957	     69.89797942	     39.27509899	     -2.07493032	     10.81439095	     27.88123132	    115.98349007	     -5.46783359	      4.15702467	    -12.01273775	   -134.31941097	    -56.26168360
      1.84000000	     -0.00000017	     -0.17441045	     17.75562312	     13.71907418	    -13.71907418	     16.07236923	     11.85705928	    -11.85705928	     58.91385320	     70.80026272	     39.71411593	     -1.72188662	     10.33965740	     27.34404105	    115.74158895	     -5.19681245	      3.95465774	    -11.65992238	   -134.12442884	    -56.34351658
      1.84500000	     -0.00000017	     -0.17832348	     18.49618683	     13.72468528	    -13.72468528	     16.82568862	     11.85390286	    -11.85390286	     58.48927184	     71.62777738	     40.11704922	     -1.34431879	      9.71190482	     27.12331381	    115.43790039	     -5.41569896	      4.24949776	    -11.46652962	   -134.15740659	    -56.26885163
      1.85000000	     -0.00000017	     -0.18225284	     19.25482162	     13.74470052	    -13.74470052	     17.57846289	     11.84876288	    -11.84876288	     58.06745308	     72.45046136	     40.51791444	     -0.97902191	      9.08708450	     26.70065441	    115.13276838	     -5.43609802	      4.25555006	    -11.19219759	   -134.09082967	    -56.25398796
      1.85500000	     -0.00000017	     -0.18524968	     20.01543921	     13.72688957	    -13.72688957	     18.41390198	     11.85003641	    -11.85003641	     57.74870296	     73.07249874	     40.82120171	     -0.51696680	      8.43239962	     26.18647781	    114.87793086	     -5.33400033	      4.11547207	    -10.88513888	   -133.96430938	    -56.30946141
      1.86000000	     -0.00000018	     -0.18930281	     20.83879018	     13.73481280	    -13.73481280	     19.16527877	     11.84073184	    -11.84073184	     57.32155520	     73.90658013	     41.22813533	     -0.10073288	      7.78789504	     25.82982581	    114.54240644	     -5.40434506	      4.38933610	    -10.64865207	   -133.90308285	    -56.18753220
